<?xml version="1.0" ?><!DOCTYPE svg  PUBLIC '-//W3C//DTD SVG 1.1//EN'  'http://www.w3.org/Graphics/SVG/1.1/DTD/svg11.dtd'><svg enable-background="new 0 0 24 24" width="200px" height="70px" id="Layer_1" version="1.1" viewBox="0 0 24 24" xml:space="preserve" xmlns="http://www.w3.org/2000/svg" xmlns:xlink="http://www.w3.org/1999/xlink"><g><path d="M12,0C5.4,0,0,5.4,0,12s5.4,12,12,12s12-5.4,12-12S18.6,0,12,0z M12,22C6.5,22,2,17.5,2,12S6.5,2,12,2s10,4.5,10,10   S17.5,22,12,22z"/><path d="M12,18v1c3.3,0,6-2.7,6-6h-1C17,15.8,14.8,18,12,18z"/><path d="M18,7h-4c-0.6,0-1,0.4-1,1h-2c0-0.6-0.4-1-1-1H6C5.4,7,5,7.4,5,8v3c0,0.6,0.4,1,1,1h4c0.6,0,1-0.4,1-1V9h2v2   c0,0.6,0.4,1,1,1h4c0.6,0,1-0.4,1-1V8C19,7.4,18.6,7,18,7z M10,11H6V8h4V11z M18,11h-4V8h4V11z"/></g></svg>
